<svg xmlns="http://www.w3.org/2000/svg" width="26" height="26" viewBox="0 0 26 26">
  <g id="Group_17040" data-name="Group 17040" transform="translate(-1599 -4363)">
    <circle id="Ellipse_344" data-name="Ellipse 344" cx="13" cy="13" r="13" transform="translate(1599 4363)" fill="#22274e"/>
    <path id="Fill_1" data-name="Fill 1" d="M4.2,9.283A.651.651,0,0,1,3.746,9.1L.2,5.665a.671.671,0,0,1-.022-.939A.649.649,0,0,1,1.108,4.7L4.2,7.7,12,.183a.649.649,0,0,1,.927.023.672.672,0,0,1-.023.939L4.651,9.1a.647.647,0,0,1-.452.184" transform="translate(1605.447 4371.608)" fill="#fff"/>
  </g>
</svg>
