<svg xmlns="http://www.w3.org/2000/svg" width="69" height="70" viewBox="0 0 69 70">
  <g id="Group_2284" data-name="Group 2284" transform="translate(-347.335 0.176)">
    <ellipse id="Ellipse_18" data-name="Ellipse 18" cx="34.5" cy="35" rx="34.5" ry="35" transform="translate(347.335 -0.176)" fill="#833ab4"/>
    <path id="Icon_awesome-instagram" data-name="Icon awesome-instagram" d="M17.815,10.917a9.134,9.134,0,1,0,9.134,9.134A9.119,9.119,0,0,0,17.815,10.917Zm0,15.072a5.938,5.938,0,1,1,5.938-5.938A5.949,5.949,0,0,1,17.815,25.989ZM29.453,10.543a2.13,2.13,0,1,1-2.13-2.13A2.126,2.126,0,0,1,29.453,10.543Zm6.05,2.162c-.135-2.854-.787-5.382-2.878-7.465s-4.611-2.735-7.465-2.878c-2.941-.167-11.757-.167-14.7,0C7.616,2.5,5.088,3.15,3,5.233S.263,9.843.12,12.7c-.167,2.941-.167,11.757,0,14.7C.255,30.25.907,32.778,3,34.86s4.611,2.735,7.465,2.878c2.941.167,11.757.167,14.7,0,2.854-.135,5.382-.787,7.465-2.878S35.36,30.25,35.5,27.4c.167-2.941.167-11.749,0-14.691ZM31.7,30.552a6.012,6.012,0,0,1-3.386,3.386c-2.345.93-7.91.715-10.5.715s-8.164.207-10.5-.715a6.012,6.012,0,0,1-3.386-3.386c-.93-2.345-.715-7.91-.715-10.5s-.207-8.164.715-10.5A6.012,6.012,0,0,1,7.314,6.163c2.345-.93,7.91-.715,10.5-.715s8.164-.207,10.5.715A6.012,6.012,0,0,1,31.7,9.549c.93,2.345.715,7.91.715,10.5S32.633,28.215,31.7,30.552Z" transform="translate(363.718 14.529)" fill="#fff"/>
  </g>
</svg>
