<svg xmlns="http://www.w3.org/2000/svg" width="69" height="70" viewBox="0 0 69 70">
  <g id="Group_17293" data-name="Group 17293" transform="translate(-827 -1497)">
    <g id="Group_2283" data-name="Group 2283" transform="translate(621.665 1497.176)">
      <ellipse id="Ellipse_19" data-name="Ellipse 19" cx="34.5" cy="35" rx="34.5" ry="35" transform="translate(205.335 -0.176)" fill="#fffc00"/>
    </g>
    <path id="icons8_Snapchat" d="M35.973,28.566c-4.409-.729-5.587-3.886-6.22-5.581a2.239,2.239,0,0,1-.181-.937c.168-.407,1.055-.7,1.532-.849a4.28,4.28,0,0,0,.554-.187c1.8-.711,2.034-1.635,1.912-2.283a2.081,2.081,0,0,0-2.06-1.494,1.622,1.622,0,0,0-.737.165,3.209,3.209,0,0,1-1.31.356,1.244,1.244,0,0,1-.154-.009c0-.023,0-.047,0-.07.008-.128.016-.258.023-.391l.006-.095c.152-2.344.31-4.767-.45-6.5A9.248,9.248,0,0,0,20.3,5.121h0c-.032,0-.162,0-.277-.007l-.05,0-.051,0c-.116.007-.245.007-.277.007h0a9.247,9.247,0,0,0-8.587,5.562c-.761,1.74-.6,4.164-.452,6.507l.006.106c.006.123.015.253.023.381,0,.023,0,.047,0,.07a1.243,1.243,0,0,1-.154.009,3.209,3.209,0,0,1-1.31-.356,1.614,1.614,0,0,0-.737-.165,2.08,2.08,0,0,0-2.058,1.485c-.124.658.113,1.582,1.932,2.3a4.027,4.027,0,0,0,.527.177c.507.165,1.372.45,1.538.853a2.227,2.227,0,0,1-.18.935c-.634,1.7-1.812,4.853-6.226,5.584A1.149,1.149,0,0,0,3,29.766L3,29.8l.006.037a1.332,1.332,0,0,0,.126.435c.413.909,1.822,1.539,4.416,1.973.043.151.087.359.11.467l.012.055c.051.229.108.487.192.752a1.21,1.21,0,0,0,1.241.919,4.3,4.3,0,0,0,.7-.082l.113-.019a8.115,8.115,0,0,1,1.69-.2,7.522,7.522,0,0,1,1.181.1,5.633,5.633,0,0,1,2.175,1.144,7.716,7.716,0,0,0,4.8,1.875c.052,0,.148,0,.207-.008s.154.008.207.008a7.718,7.718,0,0,0,4.8-1.877,5.63,5.63,0,0,1,2.174-1.143,7.494,7.494,0,0,1,1.179-.1,7.981,7.981,0,0,1,1.661.19l.142.024a4.3,4.3,0,0,0,.7.082,1.21,1.21,0,0,0,1.241-.919c.084-.264.141-.523.192-.752l.011-.048c.024-.112.069-.322.112-.473,2.591-.432,4-1.062,4.416-1.973a1.3,1.3,0,0,0,.124-.428l0-.036,0-.044A1.149,1.149,0,0,0,35.973,28.566Z" transform="translate(841.001 1510.89)" fill="#fff"/>
  </g>
</svg>
