<svg xmlns="http://www.w3.org/2000/svg" width="69" height="70" viewBox="0 0 69 70">
  <g id="Group_2282" data-name="Group 2282" transform="translate(-67.452 0.176)">
    <ellipse id="Ellipse_20" data-name="Ellipse 20" cx="34.5" cy="35" rx="34.5" ry="35" transform="translate(67.452 -0.176)" fill="#1da1f2"/>
    <path id="Icon_awesome-twitter" data-name="Icon awesome-twitter" d="M34.629,11.193c.024.343.024.686.024,1.029,0,10.457-7.959,22.507-22.507,22.507A22.354,22.354,0,0,1,0,31.177a16.364,16.364,0,0,0,1.91.1,15.842,15.842,0,0,0,9.821-3.38,7.924,7.924,0,0,1-7.4-5.486,9.975,9.975,0,0,0,1.494.122,8.366,8.366,0,0,0,2.082-.269A7.911,7.911,0,0,1,1.567,14.5v-.1a7.967,7.967,0,0,0,3.576,1A7.922,7.922,0,0,1,2.694,4.826,22.485,22.485,0,0,0,19,13.1a8.93,8.93,0,0,1-.2-1.812A7.918,7.918,0,0,1,32.5,5.879a15.574,15.574,0,0,0,5.021-1.91,7.889,7.889,0,0,1-3.478,4.359A15.858,15.858,0,0,0,38.6,7.1a17,17,0,0,1-3.967,4.09Z" transform="translate(82.545 15.966)" fill="#fff"/>
  </g>
</svg>
