<svg xmlns="http://www.w3.org/2000/svg" width="54.563" height="60.705" viewBox="0 0 54.563 60.705">
  <g id="Document" transform="translate(0.599 0.6)">
    <path id="Stroke_1" data-name="Stroke 1" d="M22.469,1.85H0A1.35,1.35,0,0,1,0-.85H22.469a1.35,1.35,0,1,1,0,2.7Z" transform="translate(15.519 42.701)" fill="#22274e"/>
    <path id="Stroke_2" data-name="Stroke 2" d="M22.469,1.85H0A1.35,1.35,0,0,1,0-.85H22.469a1.35,1.35,0,1,1,0,2.7Z" transform="translate(15.519 29.511)" fill="#22274e"/>
    <path id="Stroke_3" data-name="Stroke 3" d="M8.574,1.85H0A1.35,1.35,0,0,1,0-.85H8.574a1.35,1.35,0,1,1,0,2.7Z" transform="translate(15.52 16.351)" fill="#22274e"/>
    <path id="Stroke_4" data-name="Stroke 4" d="M37.836-1.35h0A15.087,15.087,0,0,1,49.074,3.035c2.708,2.829,4.139,6.8,4.139,11.48V43.489c0,4.656-1.42,8.61-4.106,11.436a15.05,15.05,0,0,1-11.147,4.42h-.008l-23.928.009A15.083,15.083,0,0,1,2.787,54.97c-2.706-2.829-4.137-6.8-4.137-11.48V14.515c0-4.656,1.419-8.61,4.1-11.434A15.048,15.048,0,0,1,13.9-1.337h.008Zm.111,58c7.752-.05,12.566-5.09,12.566-13.156V14.515c0-8.121-4.857-13.165-12.676-13.165l-23.924.013C6.164,1.412,1.35,6.452,1.35,14.515V43.489c0,8.121,4.856,13.165,12.673,13.165Z" transform="translate(0.751 0.75)" fill="#22274e"/>
  </g>
</svg>
