<svg xmlns="http://www.w3.org/2000/svg" width="60.87" height="52.684" viewBox="0 0 60.87 52.684">
  <g id="Group_17088" data-name="Group 17088" transform="translate(-557.5 -1616.27)">
    <path id="Rectangle_194" data-name="Rectangle 194" d="M4.063-1H54.807A5.069,5.069,0,0,1,59.87,4.063V32.9a5.069,5.069,0,0,1-5.063,5.063H4.063A5.069,5.069,0,0,1-1,32.9V4.063A5.069,5.069,0,0,1,4.063-1ZM54.807,35.968A3.067,3.067,0,0,0,57.87,32.9V4.063A3.067,3.067,0,0,0,54.807,1H4.063A3.067,3.067,0,0,0,1,4.063V32.9a3.067,3.067,0,0,0,3.063,3.063Z" transform="translate(558.5 1617.27)" fill="#22274e"/>
    <path id="Path_5249" data-name="Path 5249" d="M618.961,303.909h0a2.213,2.213,0,0,1,1.438.61l11.643,7.506.06.054a2.8,2.8,0,0,1,0,4.2l-.06.054L620.4,323.84a2.213,2.213,0,0,1-1.438.611c-.832,0-1.671-.643-1.671-2.08V305.988a2.449,2.449,0,0,1,.343-1.343A1.558,1.558,0,0,1,618.961,303.909Zm11.85,9.7-11.521-7.427v15.992l11.521-7.427a.789.789,0,0,0,0-1.138Z" transform="translate(-36.53 1321.228)" fill="#22274e"/>
    <path id="Union_1" data-name="Union 1" d="M30.967,8.929A4.974,4.974,0,0,1,26.1,4.965H0v-2H26.1a4.965,4.965,0,0,1,9.727,0H59.848v2H35.83A4.973,4.973,0,0,1,30.967,8.929Zm0-7.929a2.965,2.965,0,1,0,2.964,2.965A2.969,2.969,0,0,0,30.967,1Z" transform="translate(558.5 1660.024)" fill="#22274e"/>
  </g>
</svg>
