<svg xmlns="http://www.w3.org/2000/svg" width="59.848" height="59.848" viewBox="0 0 59.848 59.848">
  <path id="icons8_Seo_Text_2" d="M7.175,1A6.162,6.162,0,0,0,1,7.175v47.5a6.162,6.162,0,0,0,6.175,6.175h47.5a6.162,6.162,0,0,0,6.175-6.175V7.175A6.162,6.162,0,0,0,54.673,1Zm0,2.85h47.5A3.3,3.3,0,0,1,58,7.175V14.3H3.85V7.175A3.3,3.3,0,0,1,7.175,3.85Zm1.9,3.8a1.425,1.425,0,1,0,0,2.85h1.9a1.425,1.425,0,1,0,0-2.85Zm7.6,0a1.425,1.425,0,0,0,0,2.85h1.9a1.425,1.425,0,0,0,0-2.85ZM3.85,17.149H58V54.673A3.3,3.3,0,0,1,54.673,58H7.175A3.3,3.3,0,0,1,3.85,54.673Zm9.5,10.925a1.425,1.425,0,1,0,0,2.85H48.5a1.425,1.425,0,0,0,0-2.85Zm0,7.125a1.425,1.425,0,1,0,0,2.85H48.5a1.425,1.425,0,0,0,0-2.85Zm0,7.125a1.425,1.425,0,1,0,0,2.85H38.524a1.425,1.425,0,0,0,0-2.85Zm32.774,0a1.425,1.425,0,0,0,0,2.85H48.5a1.425,1.425,0,0,0,0-2.85Z" transform="translate(-1 -1)" fill="#22274e"/>
</svg>
