<svg xmlns="http://www.w3.org/2000/svg" width="56.092" height="59.223" viewBox="0 0 56.092 59.223">
  <g id="svgexport-6" transform="translate(-13.451 0.15)">
    <g id="Group_17322" data-name="Group 17322" transform="translate(13.601 16.877)">
      <g id="Group_17321" data-name="Group 17321">
        <path id="Path_5475" data-name="Path 5475" d="M68.242,186.4H65.718v-36.65a3.1,3.1,0,0,0-3.094-3.094H56.983a3.1,3.1,0,0,0-3.094,3.094V186.4H47.48V166.353a3.1,3.1,0,0,0-3.094-3.094H38.744a3.1,3.1,0,0,0-3.094,3.094V186.4H29.241V176.017a3.1,3.1,0,0,0-3.094-3.094H20.506a3.1,3.1,0,0,0-3.094,3.094V186.4h-2.66a1.151,1.151,0,1,0,0,2.3H68.242a1.151,1.151,0,1,0,0-2.3Zm-41.3,0H19.714V176.017a.793.793,0,0,1,.792-.792h5.642a.793.793,0,0,1,.792.792V186.4Zm18.239,0H37.952V166.353a.793.793,0,0,1,.792-.792h5.642a.793.793,0,0,1,.792.792Zm18.239,0H56.191v-36.65a.793.793,0,0,1,.792-.792h5.642a.793.793,0,0,1,.792.792V186.4Z" transform="translate(-13.601 -146.654)" fill="#22274e"/>
        <path id="Path_5475_-_Outline" data-name="Path 5475 - Outline" d="M68.242,188.849H14.752a1.3,1.3,0,0,1,0-2.6h2.51V176.017a3.247,3.247,0,0,1,3.244-3.244h5.642a3.247,3.247,0,0,1,3.244,3.244v10.231H35.5V166.353a3.247,3.247,0,0,1,3.244-3.244h5.642a3.247,3.247,0,0,1,3.244,3.244v19.895h6.109v-36.5a3.247,3.247,0,0,1,3.244-3.244h5.642a3.247,3.247,0,0,1,3.244,3.244v36.5h2.374a1.3,1.3,0,1,1,0,2.6Zm-53.491-2.3a1,1,0,0,0,0,2H68.242a1,1,0,1,0,0-2H65.568v-36.8a2.947,2.947,0,0,0-2.944-2.944H56.983a2.947,2.947,0,0,0-2.944,2.944v36.8H47.33V166.353a2.947,2.947,0,0,0-2.944-2.944H38.744a2.947,2.947,0,0,0-2.944,2.944v20.195H29.091V176.017a2.947,2.947,0,0,0-2.944-2.944H20.506a2.947,2.947,0,0,0-2.944,2.944v10.531Zm48.815,0H56.041v-36.8a.943.943,0,0,1,.942-.942h5.642a.943.943,0,0,1,.942.942Zm-7.226-.3h6.926v-36.5a.643.643,0,0,0-.642-.642H56.983a.643.643,0,0,0-.642.642Zm-11.013.3H37.8V166.353a.943.943,0,0,1,.942-.942h5.642a.943.943,0,0,1,.942.942Zm-7.226-.3h6.926V166.353a.643.643,0,0,0-.642-.642H38.744a.643.643,0,0,0-.642.642Zm-11.013.3H19.564V176.017a.943.943,0,0,1,.942-.942h5.642a.943.943,0,0,1,.942.942Zm-7.226-.3H26.79V176.017a.643.643,0,0,0-.642-.642H20.506a.643.643,0,0,0-.642.642Z" transform="translate(-13.601 -146.654)" fill="#22274e"/>
      </g>
    </g>
    <g id="Group_17324" data-name="Group 17324" transform="translate(23.469)">
      <g id="Group_17323" data-name="Group 17323">
        <path id="Path_5476" data-name="Path 5476" d="M141.593,1.21A1.147,1.147,0,0,0,140.385,0l-.056,0h-6.963a1.151,1.151,0,0,0,0,2.3h4.3L126.29,13.679,122,9.388a1.151,1.151,0,0,0-1.628,0L99.683,30.077a1.151,1.151,0,0,0,1.628,1.627l19.875-19.875,4.29,4.29a1.151,1.151,0,0,0,1.628,0l12.191-12.19V7.82a1.151,1.151,0,1,0,2.3,0V1.266C141.6,1.247,141.594,1.229,141.593,1.21Z" transform="translate(-99.346)" fill="#22274e"/>
        <path id="Path_5476_-_Outline" data-name="Path 5476 - Outline" d="M133.367-.15h6.963l.045,0h.011a1.3,1.3,0,0,1,1.357,1.357v.011c0,.015,0,.03,0,.045V7.82a1.3,1.3,0,1,1-2.6,0V4.291L127.209,16.226a1.3,1.3,0,0,1-1.84,0l-4.184-4.184L101.417,31.81a1.3,1.3,0,1,1-1.84-1.84L120.266,9.282a1.3,1.3,0,0,1,1.84,0l4.184,4.184L137.3,2.452h-3.937a1.3,1.3,0,0,1,0-2.6Zm7.019.3h-.007l-.049,0h-6.963a1,1,0,1,0,0,2h4.661L126.29,13.891l-4.4-4.4a1,1,0,0,0-1.415,0L99.789,30.183A1,1,0,0,0,101.2,31.6l19.981-19.981,4.4,4.4a1,1,0,0,0,1.416,0L139.444,3.567V7.82a1,1,0,1,0,2,0V1.266c0-.008,0-.017,0-.025s0-.016,0-.024V1.2a1,1,0,0,0-1.05-1.05Z" transform="translate(-99.346)" fill="#22274e"/>
      </g>
    </g>
    <g id="Group_17326" data-name="Group 17326" transform="translate(19.59 33.755)">
      <g id="Group_17325" data-name="Group 17325" transform="translate(0)">
        <circle id="Ellipse_371" data-name="Ellipse 371" cx="1.151" cy="1.151" r="1.151" fill="#22274e"/>
        <path id="Ellipse_371_-_Outline" data-name="Ellipse 371 - Outline" d="M1.151-.15a1.3,1.3,0,1,1-1.3,1.3A1.3,1.3,0,0,1,1.151-.15Zm0,2.3a1,1,0,1,0-1-1A1,1,0,0,0,1.151,2.152Z" fill="#22274e"/>
      </g>
    </g>
  </g>
</svg>
