<svg xmlns="http://www.w3.org/2000/svg" width="44.302" height="58.504" viewBox="0 0 44.302 58.504">
  <g id="Group_17087" data-name="Group 17087" transform="translate(-1441 -1606.441)">
    <g id="Group_10848" data-name="Group 10848" transform="translate(1448.915 1617.635)">
      <path id="Path_5245" data-name="Path 5245" d="M139.142,278.855H122.924a1.052,1.052,0,0,1-1.04-1.212l.879-5.706a1.047,1.047,0,0,1,1.04-.892h12.884a1.056,1.056,0,0,1,1.031.84Zm-15.462-1.7h13.38l-.9-4.41h-11.8Z" transform="translate(-116.374 -231.545)" fill="#22274e"/>
      <path id="Path_5246" data-name="Path 5246" d="M121.286,173.464H108.565a1.208,1.208,0,0,1-1.121-.752L100.3,155.307a1.211,1.211,0,0,1,.1-1.116l13.057-20.26a1.21,1.21,0,0,1,1.881-.193,1.213,1.213,0,0,1,.809-.308,1.2,1.2,0,0,1,1.033.586L129.3,154.052a1.22,1.22,0,0,1,.09,1.073L122.412,172.7A1.206,1.206,0,0,1,121.286,173.464Zm-12.394-1.7h12.063l6.769-17.04-11.086-18.332v15.57a2.641,2.641,0,1,1-2.643-.026V136.244L101.974,154.9Zm6.416-18.5-.25.065a.94.94,0,1,0,.5.006Z" transform="translate(-101.064 -134.224)" fill="#22274e"/>
    </g>
    <path id="Path_5247" data-name="Path 5247" d="M121.76,112.883c-8.8-7.038-17.878-9.2-26.991-6.414a30.317,30.317,0,0,0-8.167,3.964,23.615,23.615,0,0,0-3.005,2.4l-1.06-1.061a24.454,24.454,0,0,1,3.164-2.535,31.854,31.854,0,0,1,8.568-4.179,27.239,27.239,0,0,1,12.791-.838,34.714,34.714,0,0,1,15.638,7.5Z" transform="translate(1360.574 1504.38)" fill="#22274e"/>
    <path id="Path_5248" data-name="Path 5248" d="M82.4,131.094a2.5,2.5,0,1,1-2.5-2.5A2.5,2.5,0,0,1,82.4,131.094Z" transform="translate(1363.6 1485.584)" fill="#22274e"/>
    <circle id="Ellipse_17" data-name="Ellipse 17" cx="2.5" cy="2.5" r="2.5" transform="translate(1480.302 1614.177)" fill="#22274e"/>
    <rect id="Rectangle_189" data-name="Rectangle 189" width="5" height="5" transform="translate(1460.721 1606.441)" fill="#22274e"/>
  </g>
</svg>
