<svg xmlns="http://www.w3.org/2000/svg" width="52.295" height="47.61" viewBox="0 0 52.295 47.61">
  <path id="icons8_code_file_1" d="M60.618,31.987A1.9,1.9,0,0,0,58.7,33.434l-11.4,43.7a1.9,1.9,0,1,0,3.674.958l11.4-43.7a1.9,1.9,0,0,0-1.755-2.4Zm7.559,9.5a1.9,1.9,0,0,0-1.548,3.08l8.61,11.192-8.61,11.192a1.9,1.9,0,1,0,3.013,2.316L80.033,55.763,69.643,42.255A1.9,1.9,0,0,0,68.177,41.491Zm-28.638,0a1.9,1.9,0,0,0-1.41.761L27.738,55.763,38.129,69.271a1.9,1.9,0,1,0,3.013-2.316l-8.61-11.192,8.61-11.192a1.9,1.9,0,0,0-1.6-3.077Z" transform="translate(-27.738 -31.986)" fill="#fff"/>
</svg>
