<svg xmlns="http://www.w3.org/2000/svg" width="85.93" height="78.457" viewBox="0 0 85.93 78.457">
  <g id="svgexport-6_1_" data-name="svgexport-6 (1)" transform="translate(18.69 -3.008) rotate(16)">
    <path id="Path_5489" data-name="Path 5489" d="M124.063,292.186a1.4,1.4,0,1,0-1.912-.512A1.4,1.4,0,0,0,124.063,292.186Zm0,0" transform="translate(-104.895 -249.048)" fill="#22274e"/>
    <path id="Path_5490" data-name="Path 5490" d="M13.433,72.024l7.048,12.208a5.6,5.6,0,1,0,9.7-5.6l-4.2-7.273,3.636-2.1a1.4,1.4,0,0,0,.512-1.912L28.307,64.2,55.113,58.94a4.2,4.2,0,0,0,3.4-6.291l-4.651-8.056,2.972-4.5a1.4,1.4,0,0,0,.044-1.471l-2.8-4.848a1.4,1.4,0,0,0-1.3-.7L47.4,33.4l-5.163-8.944a4.162,4.162,0,0,0-3.584-2.1H38.6a4.162,4.162,0,0,0-3.535,1.936L16.784,47.581,4.9,54.443a9.8,9.8,0,0,0,8.534,17.581Zm14.32,8.011a2.8,2.8,0,0,1-4.849,2.8l-7-12.122,4.848-2.8,7,12.122Zm-3.175-11.1-1.4-2.424,2.424-1.4L27,67.538ZM52.091,35.921l1.934,3.35L52.3,41.883l-3.334-5.775Zm-14.683-10.1a1.4,1.4,0,0,1,2.407.028l16.278,28.2a1.4,1.4,0,0,1-1.178,2.1,5.137,5.137,0,0,0-.768.13L36.928,26.453c.361-.465.408-.509.479-.627Zm-2.342,3L51.244,56.847,26.827,61.636,19.4,48.777ZM3.737,66.426A6.993,6.993,0,0,1,6.3,56.867l10.908-6.3,7,12.12L13.3,68.988a7.006,7.006,0,0,1-9.559-2.562Zm0,0" transform="translate(0 -19.227)" fill="#22274e"/>
    <path id="Path_5491" data-name="Path 5491" d="M51.541,310.273a1.4,1.4,0,0,0-1.912-.512l-2.424,1.4a1.4,1.4,0,0,1-1.912-.512,1.4,1.4,0,1,0-2.424,1.4,4.2,4.2,0,0,0,5.735,1.537l2.424-1.4A1.4,1.4,0,0,0,51.541,310.273Zm0,0" transform="translate(-36.708 -266.247)" fill="#22274e"/>
    <path id="Path_5492" data-name="Path 5492" d="M444.793,42.658l-7.8,4.34a1.4,1.4,0,0,0,1.361,2.446l7.8-4.34a1.4,1.4,0,0,0-1.361-2.446Zm0,0" transform="translate(-375.218 -36.535)" fill="#22274e"/>
    <path id="Path_5493" data-name="Path 5493" d="M447.233,138.118l-5.407-1.449a1.4,1.4,0,1,0-.724,2.7l5.408,1.449a1.4,1.4,0,1,0,.724-2.7Zm0,0" transform="translate(-378.476 -117.5)" fill="#22274e"/>
    <path id="Path_5494" data-name="Path 5494" d="M384.991,1.038l-1.45,5.408a1.4,1.4,0,0,0,2.7.725l1.45-5.408a1.4,1.4,0,1,0-2.7-.725Zm0,0" transform="translate(-329.822 0)" fill="#22274e"/>
  </g>
</svg>
